<mxfile host="app.diagrams.net" modified="2022-06-05T09:53:28.090Z" agent="5.0 (Macintosh; Intel Mac OS X 10_15_6) AppleWebKit/537.36 (KHTML, like Gecko) Chrome/102.0.5005.61 Safari/537.36" etag="5Q5KkDcCNyuwKHuqzg7O" version="19.0.0" type="github">
  <diagram id="BMrjsXZdEsJm50BJXNOF" name="Page-1">
    <mxGraphModel dx="1426" dy="818" grid="1" gridSize="10" guides="1" tooltips="1" connect="1" arrows="1" fold="1" page="1" pageScale="1" pageWidth="827" pageHeight="1169" math="0" shadow="0">
      <root>
        <mxCell id="0" />
        <mxCell id="1" parent="0" />
        <mxCell id="FegvYGMnWvT4sHrQye5T-1" value="" style="rounded=1;whiteSpace=wrap;html=1;" parent="1" vertex="1">
          <mxGeometry x="120" y="120" width="120" height="60" as="geometry" />
        </mxCell>
        <mxCell id="FegvYGMnWvT4sHrQye5T-2" value="" style="swimlane;startSize=0;" parent="1" vertex="1">
          <mxGeometry x="340" y="400" width="200" height="200" as="geometry" />
        </mxCell>
        <object label="" TEST="qsdfqsdfqdfsdqdsfqdfs" tooltip="qdsfqdsf" tags="qsdf" id="sUCG3dO5gU7sR0eRZwIT-1">
          <mxCell style="ellipse;whiteSpace=wrap;html=1;" parent="1" vertex="1">
            <mxGeometry x="390" y="120" width="120" height="80" as="geometry" />
          </mxCell>
        </object>
      </root>
    </mxGraphModel>
  </diagram>
</mxfile>
